+8_ID_stride6.mot
nRows=7
nColumns=38

name +8_ID_stride6.mot
datacolumns 38
datarows 7
range 3.0000000000 3.0300000000
endheader
time	pelvis_tilt_moment	pelvis_list_moment	pelvis_rotation_moment	pelvis_tx_force	pelvis_ty_force	pelvis_tz_force	hip_flexion_r_moment	hip_adduction_r_moment	hip_rotation_r_moment	knee_angle_r_moment	ankle_angle_r_moment	subtalar_angle_r_moment	mtp_angle_r_moment	hip_flexion_l_moment	hip_adduction_l_moment	hip_rotation_l_moment	knee_angle_l_moment	ankle_angle_l_moment	subtalar_angle_l_moment	mtp_angle_l_moment	lumbar_extension_moment	lumbar_bending_moment	lumbar_rotation_moment	arm_flex_r_moment	arm_add_r_moment	arm_rot_r_moment	elbow_flex_r_moment	pro_sup_r_moment	wrist_flex_r_moment	wrist_dev_r_moment	arm_flex_l_moment	arm_add_l_moment	arm_rot_l_moment	elbow_flex_l_moment	pro_sup_l_moment	wrist_flex_l_moment	wrist_dev_l_moment
        3.0000000000	      -30.5871569565	       33.2975443994	        7.5375607534	       44.6190506543	      306.6140641701	      173.4895973981	       78.9500894167	      -18.8641637986	        4.4712929234	       26.4294931492	        4.2806071798	       -0.9050680485	        0.1854939380	      -80.5030617188	       -3.5280361610	       -0.6238921244	      -42.1308488560	        7.3400475147	       -2.6352840932	        0.0706374625	       51.3600278389	       39.2063122944	      -14.2047292149	       -4.0360637819	       -1.2625415993	       -1.0537813780	        1.1727335243	       -0.0664430451	       -0.0879105679	       -0.1461430388	       -0.7412911678	        2.5551480486	        2.0794875361	        1.7732545110	        0.0395764208	        0.2610178388	       -0.1109633265	
        3.0050000000	      -41.6239509410	       58.5073737587	       17.0289235530	       47.7812985824	      394.1203059913	      189.3076401309	       73.1716085688	      -18.2323959224	        4.8679865801	       25.8541154502	        4.4904498167	       -0.9009651123	        0.2129048707	      -56.9175646365	      -19.0381274409	       -0.2353156810	      -21.7892658615	       13.9047537757	       -3.7479873318	        0.1639188170	       61.9995341914	       40.6249633992	       -8.4662512428	       -4.7191269363	       -0.6799953394	       -0.3333274186	        1.6071106977	       -0.0525867041	       -0.0009219037	       -0.1538823398	       -2.7810141850	        2.1996170590	        1.7842118241	        2.0848117819	        0.0200774238	        0.2302095238	       -0.1363363662	
        3.0100000000	      -50.1477413101	       73.2271901278	       28.7926618586	       45.1582419142	      417.5580582902	      165.5449042463	       70.9822467637	      -15.9365849002	        4.8480914842	       25.1698989836	        4.6800317478	       -0.8821038934	        0.2360093351	      -48.2941495949	      -35.5022404924	       -3.0866077586	       -5.7033706141	       16.8837455309	       -4.4611395791	        0.2536678764	       69.0913182687	       41.4317812888	       -2.7843088390	       -4.7788843024	       -0.1909138405	        0.2759516655	        2.1599004879	       -0.0436664908	        0.0780817766	       -0.1757460789	       -4.2910351948	        1.9725839130	        1.4882262850	        2.5015727483	       -0.0017521112	        0.1997153964	       -0.1728766645	
        3.0150000000	      -50.0206028843	       70.4756909230	       40.0099402092	       32.6572760359	      367.5473317671	      106.9092156526	       72.4701385149	      -12.0046574952	        4.4976203436	       25.1742387470	        4.8224844419	       -0.8421558302	        0.2520763477	      -54.1910753400	      -50.0818482170	       -8.2691964725	        5.2759362840	       12.7332316622	       -4.1038521707	        0.3243011510	       66.7653548343	       40.1394811815	        2.4916008931	       -4.3242849013	        0.2734599451	        0.7650524930	        2.6269877749	       -0.0360917757	        0.1413221447	       -0.1932329329	       -4.7210636640	        1.6883953731	        1.1073035953	        2.8326300190	       -0.0237283194	        0.1593000695	       -0.2059770118	
        3.0200000000	      -47.3329653593	       58.1064898490	       49.5878548242	        6.8431597350	      234.3524747103	       25.8688741984	       76.3010064845	       -6.6239526445	        3.6449748146	       25.3858583183	        4.8806519494	       -0.7776705358	        0.2586658717	      -72.4842855947	      -59.7586681044	      -15.4450894122	       10.6512668638	        0.7600682553	       -3.3450010116	        0.3659527247	       58.4749041578	       36.2625428595	        7.2325207157	       -3.2025050683	        0.7607120503	        1.1854584676	        2.8625252244	       -0.0278467038	        0.1914106733	       -0.1997989412	       -4.8055335543	        1.2886392186	        0.6310196944	        2.9687212299	       -0.0444913795	        0.1077326932	       -0.2247295746	
        3.0250000000	      -34.2216844462	       22.8689549513	       56.6349958000	      -30.0768175125	       45.9310257611	      -45.0763515244	       80.6474873132	       -0.1069479044	        2.4339635775	       26.3962651122	        4.8602332144	       -0.6845942655	        0.2588194986	     -105.7900021013	      -63.5772564889	      -24.1521226350	       11.7418031989	      -19.0015595676	       -2.8649435362	        0.3794407621	       41.5956007319	       29.1828927808	       11.2228793250	       -1.8261406262	        1.3275093855	        1.5618792036	        2.8960857553	       -0.0164063312	        0.2286973090	       -0.1867360232	       -4.2011972350	        0.6398684952	        0.0383826109	        2.9113276947	       -0.0626385407	        0.0428216063	       -0.2289716061	
        3.0300000000	      -15.9252300374	      -21.7936425508	       61.3761441780	      -69.8220062064	     -142.7845315488	      -81.3027012946	       83.2018275757	        6.8182043716	        1.0193504002	       27.5933985683	        4.7311281724	       -0.5714962939	        0.2509423989	     -143.8492439816	      -59.9300553118	      -33.9087156571	       12.0752731525	      -40.3154016997	       -3.9798520851	        0.3592385256	       23.6558295526	       20.8931440461	       14.2921373212	       -0.5466088811	        1.9515933079	        1.9175612766	        2.7531835666	       -0.0033908690	        0.2576909620	       -0.1622135691	       -3.4778060779	       -0.1496552403	       -0.5766115582	        2.7096706842	       -0.0777446202	       -0.0235462863	       -0.2215177685	
